# xmcd CD database file
#
# Track frame offsets:
#	150
#	17887
#	55130
#	77412
#	104527
#	115170
#	130232
#	144542
#	158817
#	172472
#	189637
#	197577
#	206865
#	229165
#	264875
#	296155
#	327635
#	334605
#
# Disc length: 4680 seconds
#
# Revision: 0
# Processed by: cddbd v1.5.1PL0 Copyright (c) Steve Scherf et al.
# Submitted via: CDex 1.51
#
DISCID=13124612
DTITLE=Chopin - Complete Chopin Recordings on RCA 1928-1957 (Horowitz) cd1
DYEAR=2003
DGENRE=Classical
TTITLE0=Andante spianato and Grande Polonaise Es-dur op.22I
TTITLE1=Andante spianato and Grande Polonaise Es-dur op.22 II
TTITLE2=Waltz a-moll op.34-2
TTITLE3=Polonaise As-dur op.53 "Heroic"
TTITLE4=Mazurka f-moll op.7-3
TTITLE5=Waltz cis-moll op.64-2
TTITLE6=Mazurka fis-moll op.59-3
TTITLE7=Mazurka cis-moll op.41-1
TTITLE8=Mazurka Des-dur op.30-3
TTITLE9=Mazurka cis-moll op.30-4
TTITLE10=Mazurka f-moll op.63-2
TTITLE11=Mazurka cis-moll op.63-3
TTITLE12=Mazurka cis-moll op.50-3
TTITLE13=Sonata No.2 b-moll op.35 I
TTITLE14=Sonata No.2 b-moll op.35 II
TTITLE15=Sonata No.2 b-moll op.35 III
TTITLE16=Sonata No.2 b-moll op.35 IV
TTITLE17=Mazurka cis-moll op.30-4
EXTD=YEAR: 2003
EXTT0=
EXTT1=
EXTT2=
EXTT3=
EXTT4=
EXTT5=
EXTT6=
EXTT7=
EXTT8=
EXTT9=
EXTT10=
EXTT11=
EXTT12=
EXTT13=
EXTT14=
EXTT15=
EXTT16=
EXTT17=
PLAYORDER=
